<svg xmlns="http://www.w3.org/2000/svg" width="68.7" height="134.372" viewBox="0 0 68.7 134.372"><g id="Group_170" data-name="Group 170" transform="translate(-1021.001 -10233.239)"><g id="Group_170-2" data-name="Group 170" transform="translate(433.984 217.239)"><path id="Path_952" data-name="Path 952" d="M5748.017,9570.9v114.448h68.7V9570.9l-34.293-19.924Z" transform="translate(-5161 465.025)" fill="#fff"></path><path id="Icon_awesome-magento" data-name="Icon awesome-magento" d="M52.043,14.965V44.931L44.625,49.2V19.271L26.079,8.553,7.522,19.271l.047,29.942L.162,44.931V14.989L26.126,0ZM29.8,49.2l-3.7,2.153-3.721-2.13V19.271l-7.407,4.282L14.987,53.5l11.1,6.424L37.218,53.5V23.542L29.8,19.26V49.2Z" transform="translate(595.429 10026.66)" fill="#0a043c"></path></g><path id="Path_38369" data-name="Path 38369" d="M21.6,7h.637V3.381L23.85,7H24.3l1.61-3.612V7h.637V2.156h-.679l-1.792,4-1.792-4H21.6Zm9.3,0h.672L29.814,2.149h-.735L27.315,7h.672l.392-1.085h2.128Zm-.574-1.6H28.561l.882-2.464Zm4.228-3.332A2.407,2.407,0,0,0,32.1,4.557a2.4,2.4,0,0,0,2.45,2.485,2.366,2.366,0,0,0,2.394-2.184v-.49H34.322v.518h1.946a1.645,1.645,0,0,1-1.715,1.582,1.77,1.77,0,0,1-1.8-1.911,1.772,1.772,0,0,1,1.8-1.918,1.557,1.557,0,0,1,1.484.9H36.8A2.307,2.307,0,0,0,34.553,2.065Zm5.859.049H37.787V7h2.625V6.475H38.424V4.8H40.2V4.27H38.424V2.639h1.988Zm4.165,0V5.992L42.015,2.114h-.637V7h.637V3.115L44.577,7h.637V2.114ZM46,2.639h1.337V7h.637V2.639H49.3V2.121H46Zm8.75,1.918a2.45,2.45,0,1,0-4.9,0,2.45,2.45,0,1,0,4.9,0Zm-4.249,0a1.8,1.8,0,1,1,3.6,0,1.8,1.8,0,1,1-3.6,0Zm6.776,2.387h3.367V6.412H58.234c.9-.735,2.261-1.806,2.261-3.066a1.424,1.424,0,0,0-1.568-1.5A1.551,1.551,0,0,0,57.3,3.486h.616a1,1,0,0,1,1.022-1.092.855.855,0,0,1,.931.98c0,1.036-1.26,2.044-2.59,3.115ZM25.026,15.557a2.394,2.394,0,0,0,2.436,2.485,2.294,2.294,0,0,0,2.261-1.463H28.96a1.54,1.54,0,0,1-1.5.91,1.77,1.77,0,0,1-1.785-1.932,1.772,1.772,0,0,1,1.785-1.939,1.535,1.535,0,0,1,1.5.917h.763a2.3,2.3,0,0,0-2.261-1.477A2.4,2.4,0,0,0,25.026,15.557Zm8.267-2.443H30.668V18h2.625v-.525H31.305V15.8h1.778V15.27H31.305V13.639h1.988Zm3.577,1.442c0,.546-.315.938-1.036.938H34.9V13.646h.938C36.562,13.646,36.87,14,36.87,14.556Zm-2.611-1.435V18H34.9V16h.77l1.162,2h.763l-1.225-2.044a1.376,1.376,0,0,0,1.162-1.4c0-.8-.546-1.435-1.694-1.435Zm3.955.518h1.337V18h.637V13.639h1.33v-.518h-3.3ZM42.3,18h.637V13.121H42.3Zm1.722,0h.637V15.8h1.722v-.518H44.661V13.639h2.121v-.518H44.024Zm3.528,0h.637V13.121h-.637ZM51.9,13.114H49.274V18H51.9v-.525H49.911V15.8h1.778V15.27H49.911V13.639H51.9Zm2.485.007H52.865V18h1.519a2.322,2.322,0,0,0,2.59-2.429A2.337,2.337,0,0,0,54.384,13.121ZM53.5,17.475V13.639h.882a1.76,1.76,0,0,1,1.939,1.932,1.74,1.74,0,0,1-1.939,1.9ZM30.7,27.67c0-1.806-2.632-1.022-2.632-2.282,0-.525.413-.8.938-.784a.884.884,0,0,1,.945.707h.7a1.459,1.459,0,0,0-1.617-1.253c-.966,0-1.617.546-1.617,1.351,0,1.813,2.639.973,2.639,2.289,0,.462-.364.812-.98.812a.9.9,0,0,1-1.008-.812h-.679c.014.805.707,1.351,1.687,1.351A1.462,1.462,0,0,0,30.7,27.67Zm4.578-.595a1.94,1.94,0,1,0-1.967,1.988A1.9,1.9,0,0,0,35.278,27.075Zm-3.227,0a1.272,1.272,0,0,1,1.281-1.421,1.289,1.289,0,0,1,1.295,1.421A1.3,1.3,0,0,1,33.311,28.5,1.263,1.263,0,0,1,32.05,27.075ZM36.118,29h.637V23.82h-.637Zm5.124-3.836H40.6v2.107c0,.826-.441,1.232-1.1,1.232a1.029,1.029,0,0,1-1.071-1.176V25.164H37.8v2.247a1.5,1.5,0,0,0,1.575,1.645,1.41,1.41,0,0,0,1.225-.623V29h.637ZM42.46,27.95c0,.77.385,1.05,1.064,1.05H44.1v-.539h-.469c-.392,0-.532-.133-.532-.511V25.689h1v-.525h-1V24.2H42.46v.966h-.5v.525h.5ZM44.868,29H45.5V25.164h-.637Zm.329-4.459a.434.434,0,1,0-.434-.434A.424.424,0,0,0,45.2,24.541Zm5.033,2.534a1.94,1.94,0,1,0-1.967,1.988A1.9,1.9,0,0,0,50.229,27.075Zm-3.227,0a1.272,1.272,0,0,1,1.281-1.421,1.289,1.289,0,0,1,1.295,1.421A1.3,1.3,0,0,1,48.263,28.5,1.263,1.263,0,0,1,47,27.075ZM53.877,29h.63V26.739a1.488,1.488,0,0,0-1.568-1.645,1.417,1.417,0,0,0-1.232.616v-.546H51.07V29h.637V26.879c0-.826.448-1.232,1.1-1.232s1.071.4,1.071,1.183ZM27.945,38.67c0-1.806-2.632-1.022-2.632-2.282,0-.525.413-.8.938-.784a.884.884,0,0,1,.945.707h.7a1.459,1.459,0,0,0-1.617-1.253c-.966,0-1.617.546-1.617,1.351,0,1.813,2.639.973,2.639,2.289,0,.462-.364.812-.98.812a.9.9,0,0,1-1.008-.812h-.679c.014.805.707,1.351,1.687,1.351A1.462,1.462,0,0,0,27.945,38.67Zm1.575-1.8v-.707h-.637V41.82h.637V39.293a1.659,1.659,0,0,0,1.435.77,1.846,1.846,0,0,0,1.82-1.995,1.818,1.818,0,0,0-1.82-1.967A1.62,1.62,0,0,0,29.52,36.871Zm2.6,1.2a1.307,1.307,0,1,1-1.3-1.414A1.3,1.3,0,0,1,32.124,38.068Zm3.122-1.428A1.126,1.126,0,0,1,36.457,37.8H34.035A1.188,1.188,0,0,1,35.246,36.64Zm1.792,2.177h-.686a1.054,1.054,0,0,1-1.078.707,1.206,1.206,0,0,1-1.246-1.2h3.066a3.453,3.453,0,0,0,.021-.385A1.758,1.758,0,0,0,35.274,36.1a1.825,1.825,0,0,0-1.9,1.974,1.848,1.848,0,0,0,1.9,1.988A1.725,1.725,0,0,0,37.038,38.817Zm.679-.742a1.827,1.827,0,0,0,1.869,1.988,1.706,1.706,0,0,0,1.771-1.295h-.686a1.029,1.029,0,0,1-1.085.756c-.7,0-1.218-.5-1.218-1.449s.518-1.435,1.218-1.435a1.045,1.045,0,0,1,1.085.756h.686A1.667,1.667,0,0,0,39.586,36.1,1.823,1.823,0,0,0,37.717,38.075ZM42.2,40h.637V36.164H42.2Zm.329-4.459a.434.434,0,1,0-.434-.434A.424.424,0,0,0,42.533,35.541Zm1.155,2.527A1.845,1.845,0,0,0,45.5,40.063a1.6,1.6,0,0,0,1.435-.777V40h.644V36.164h-.644v.7a1.592,1.592,0,0,0-1.428-.763A1.818,1.818,0,0,0,43.688,38.068Zm3.248.007a1.3,1.3,0,1,1-2.6-.007,1.3,1.3,0,0,1,1.3-1.414A1.314,1.314,0,0,1,46.936,38.075ZM48.658,40H49.3V34.82h-.637Zm1.722,0h.637V36.164H50.38Zm.329-4.459a.434.434,0,1,0-.434-.434A.424.424,0,0,0,50.709,35.541Zm4.151,3.416c-.028-1.372-2.254-.875-2.254-1.785,0-.308.28-.532.749-.532a.738.738,0,0,1,.833.665h.637a1.287,1.287,0,0,0-1.449-1.2c-.854,0-1.407.483-1.407,1.071,0,1.428,2.268.931,2.268,1.785,0,.315-.28.567-.784.567-.539,0-.868-.28-.9-.651h-.658c.042.7.672,1.19,1.568,1.19C54.307,40.063,54.86,39.587,54.86,38.957ZM55.9,38.95c0,.77.385,1.05,1.064,1.05h.574v-.539h-.469c-.392,0-.532-.133-.532-.511V36.689h1v-.525h-1V35.2H55.9v.966h-.5v.525h.5Z" transform="translate(1014.231 10313.611)" fill="#01214e"></path></g></svg>