<svg xmlns="http://www.w3.org/2000/svg" width="456.252" height="431.689" viewBox="0 0 456.252 431.689">
  <g id="Group_377" data-name="Group 377" transform="translate(-435.934 -2838.996)">
    <path id="Path_899" data-name="Path 899" d="M182.5,0H0V182.5Z" transform="translate(618.438 3021.5) rotate(180)" fill="#bedede"/>
    <path id="Path_900" data-name="Path 900" d="M234.686,0H0V234.686Z" transform="translate(657.5 3036)" fill="#bedede"/>
    <g id="car" transform="translate(476.535 2983.518)">
      <g id="car-2" data-name="car">
        <rect id="Rectangle_44" data-name="Rectangle 44" width="29.597" height="17.41" transform="translate(12.265 67.322)" fill="#020202"/>
        <ellipse id="Ellipse_100" data-name="Ellipse 100" cx="27.246" cy="27.246" rx="27.246" ry="27.246" transform="translate(235.919 32.996)"/>
        <ellipse id="Ellipse_99" data-name="Ellipse 99" cx="27.246" cy="27.246" rx="27.246" ry="27.246" transform="translate(38.658 31.781)"/>
        <path id="Path_242" data-name="Path 242" d="M260.767,99.62c.116-.175.813-3.43,7.509-6.381,4.638-2.482,13.408-3.585,20.173-4.531,16.381-2.291-21.663,1.243-21.663,1.243l-11.76,8.729v1.138Z" transform="translate(-51.28 -21.778)" fill="#c10c0c"/>
        <path id="Path_228" data-name="Path 228" d="M813.142,1245.748s-8.4-1.41-9.051,2.876,3.141,12.058,3.141,12.058l-4.916,5.084h11.14Z" transform="translate(-502.823 -1178.807)" fill="#d80808"/>
        <path id="Path_196" data-name="Path 196" d="M1023.33,1178.311c-17.562-5.951-58.72-12.464-92.112-16.742s-52.515-7.49-49.708-4.631,5.036,7.222-18.4,5.419a285.159,285.159,0,0,1-38.932-5.419c-10.324-1.928-6.374-12.408-7.541-13.977s-8.351.575-8.351.575.065-2.271,1.46-3.029a10.753,10.753,0,0,1,4.118-.715v-13.924s-21-.376-30.7,5.287-40.084,28.008-58.211,33.864-12.21,39.091-12.21,39.091H908.37s-3.555-2.033-10.684-3.169c-4.806-.767-23.249-1.105-23.249-1.105s3.946-9.715,25.074-10.634,77.288-3.827,77.288-3.827l2.93,3.827s-5.759-1.262-6.846,2.466,3.915,12.513,3.915,12.513l-5.2,4.813,59.583.652s-5.812-16.853-12.429-17.05-15.683,0-15.683,0l-1.6-7.222S1040.892,1184.263,1023.33,1178.311Z" transform="translate(-669.214 -1122.132)" fill="#ed3535"/>
        <path id="Path_219" data-name="Path 219" d="M960.295,1199.637c-18.128,5.856-12.21,39.092-12.21,39.092l121.677,1.751,76.893,1.107s-1.965-4.36-9.032-3.934c0,0-77.333,1.278-58.857-14.284C947.257,1229.847,972.422,1195.72,960.295,1199.637Z" transform="translate(-904.555 -1156.749)" fill="#d10f0f"/>
        <path id="Path_220" data-name="Path 220" d="M944.808,1199.8c-18.128,5.856-13.073,38.349-13.073,38.349l199.692,3.948s-.343-2.008-14.246-3.28c-12.039-1.1-118.761-.039-157.56-10.063C921.286,1218.856,950.847,1197.853,944.808,1199.8Z" transform="translate(-889.067 -1156.917)" fill="#380f0f"/>
        <path id="Path_198" data-name="Path 198" d="M1061.5,1210.728s53.259-12.327,78.478-13.627,28.232-1.1,28.232-1.1-22.457.638-54.671,6.349-54.54,13.683-54.54,13.683Z" transform="translate(-993.153 -1155.18)" fill="#d80808"/>
        <path id="Path_230" data-name="Path 230" d="M1039.379,1201.542h-10.235s-3.091-.492-2.69,3.12,3.9,14.7,6.339,15.572a14.38,14.38,0,0,0,5.419.581s-4.194-1.3-5.034-2.829-4.4-11.569-3.248-13.324S1039.379,1201.542,1039.379,1201.542Z" transform="translate(-847.098 -1157.784)" fill="#ac1313"/>
        <path id="Path_199" data-name="Path 199" d="M1039.379,1201.536h-10.235s-3.091-.492-2.69,3.121,3.9,14.7,6.339,15.572a14.38,14.38,0,0,0,5.419.581s-5.4.1-6.244-1.43-5.162-14.684-4.014-16.439S1039.379,1201.536,1039.379,1201.536Z" transform="translate(-847.098 -1157.779)" fill="#c60f0f"/>
        <path id="Path_200" data-name="Path 200" d="M777.436,1229.966c-8.345-1.388-53.063-1.421-53.063-1.421v5.551h8.765l2.982,3.639a19.989,19.989,0,0,1,10.8-2.787c5.713.425,12.052,4.487,12.052,4.487l-1.217-5.339S785.781,1231.354,777.436,1229.966Z" transform="translate(-425.449 -1170.521)" fill="#db0b0b"/>
        <path id="Path_222" data-name="Path 222" d="M872.722,1017.164l-14.039-2.293s-3.507.128-4.151-4.492,5.875-56.327,5.875-56.327l37.9-.842,1.4,3.724v22.011l-9.748,9.6Z" transform="translate(-850.651 -953.165)" fill="#c40e0e"/>
        <path id="Path_221" data-name="Path 221" d="M872.721,1017.129l-14.039-2.293s-3.507.127-4.151-4.493,9.279-56.684,9.279-56.684H898.3l1.411,3.24v22.011l-9.748,9.6Z" transform="translate(-854.501 -953.659)" fill="#f80000"/>
        <path id="Path_223" data-name="Path 223" d="M915.369,1242.851s5.3-7.771,25.465-12.868c-.015,0-9.587,5.007-9.485,4.982,20.03-6.683,23.738-6.07,23.738-6.07l-4,8.236s-20.593.207-26.975,2.171S915.369,1242.851,915.369,1242.851Z" transform="translate(-704.745 -1170.678)" fill="#d80808"/>
        <path id="Path_224" data-name="Path 224" d="M942.358,1217.5c.006-.039-13.877-.4-11.424.512s11.424,2.089,11.424,2.089Z" transform="translate(-695.736 -1165.34)" fill="#241616"/>
        <path id="Path_225" data-name="Path 225" d="M942.358,1217.5c.006-.039-13.877-.4-11.424.512s11.424,2.089,11.424,2.089Z" transform="translate(-692.563 -1161.639)" fill="#241616"/>
        <g id="Group_76" data-name="Group 76" transform="translate(244.638 32.996)">
          <ellipse id="Ellipse_98" data-name="Ellipse 98" cx="27.246" cy="27.246" rx="27.246" ry="27.246" transform="translate(0 0)" fill="#4f4f4f"/>
          <ellipse id="Ellipse_97" data-name="Ellipse 97" cx="26.429" cy="26.429" rx="26.429" ry="26.429" transform="translate(1.635 1.635)" fill="#1e1e1e"/>
          <ellipse id="Ellipse_96" data-name="Ellipse 96" cx="17.982" cy="17.982" rx="17.982" ry="17.982" transform="translate(10.353 10.353)" fill="#fff"/>
          <ellipse id="Ellipse_94" data-name="Ellipse 94" cx="16.892" cy="17.165" rx="16.892" ry="17.165" transform="translate(11.443 10.898)" fill="#524f4f"/>
          <ellipse id="Ellipse_93" data-name="Ellipse 93" cx="15.803" cy="16.075" rx="15.803" ry="16.075" transform="translate(12.533 11.988)" fill="#313131"/>
          <path id="Path_211" data-name="Path 211" d="M3.522,9.441,6.345.575A10.7,10.7,0,0,0,3.172,0,10.7,10.7,0,0,0,0,.575L2.66,9.441Z" transform="translate(40.97 24.898) rotate(90)"/>
          <path id="Path_212" data-name="Path 212" d="M3.522,9.441,6.345.575A10.7,10.7,0,0,0,3.172,0,10.7,10.7,0,0,0,0,.575L2.66,9.441Z" transform="translate(15.666 31.243) rotate(-90)"/>
          <path id="Path_213" data-name="Path 213" d="M3.522,9.441,6.345.575A10.7,10.7,0,0,0,3.172,0,10.7,10.7,0,0,0,0,.575L2.66,9.441Z" transform="translate(25.674 15.457)"/>
          <path id="Path_214" data-name="Path 214" d="M3.522,9.441,6.345.575A10.7,10.7,0,0,0,3.172,0,10.7,10.7,0,0,0,0,.575L2.66,9.441Z" transform="translate(35.229 17.24) rotate(45)"/>
          <path id="Path_215" data-name="Path 215" d="M3.522,0,6.345,8.866a10.7,10.7,0,0,1-3.172.575A10.7,10.7,0,0,1,0,8.866L2.66,0Z" transform="translate(28.847 23.916) rotate(135)"/>
          <path id="Path_216" data-name="Path 216" d="M3.522,0,6.345,8.866a10.7,10.7,0,0,1-3.172.575A10.7,10.7,0,0,1,0,8.866L2.66,0Z" transform="translate(25.674 31.123)"/>
          <path id="Path_217" data-name="Path 217" d="M3.522,0,6.345,8.866a10.7,10.7,0,0,1-3.172.575A10.7,10.7,0,0,1,0,8.866L2.66,0Z" transform="translate(28.553 32.105) rotate(-45)"/>
          <path id="Path_218" data-name="Path 218" d="M3.522,9.441,6.345.575A10.7,10.7,0,0,0,3.172,0,10.7,10.7,0,0,0,0,.575L2.66,9.441Z" transform="translate(22.171 38.781) rotate(-135)"/>
          <ellipse id="Ellipse_95" data-name="Ellipse 95" cx="2.18" cy="1.907" rx="2.18" ry="1.907" transform="translate(26.701 26.156)" fill="#939191"/>
        </g>
        <g id="Group_77" data-name="Group 77" transform="translate(16.861 32.326)">
          <ellipse id="Ellipse_98-2" data-name="Ellipse 98" cx="27.246" cy="27.246" rx="27.246" ry="27.246" transform="translate(0.545 0)" fill="#4f4f4f"/>
          <ellipse id="Ellipse_97-2" data-name="Ellipse 97" cx="26.429" cy="26.429" rx="26.429" ry="26.429" transform="translate(0 1.09)" fill="#1e1e1e"/>
          <ellipse id="Ellipse_96-2" data-name="Ellipse 96" cx="17.982" cy="17.982" rx="17.982" ry="17.982" transform="translate(8.719 9.809)" fill="#fff"/>
          <ellipse id="Ellipse_94-2" data-name="Ellipse 94" cx="16.892" cy="17.165" rx="16.892" ry="17.165" transform="translate(9.809 10.353)" fill="#524f4f"/>
          <ellipse id="Ellipse_93-2" data-name="Ellipse 93" cx="15.803" cy="16.075" rx="15.803" ry="16.075" transform="translate(10.898 11.443)" fill="#313131"/>
          <path id="Path_211-2" data-name="Path 211" d="M3.522,9.441,6.345.575A10.7,10.7,0,0,0,3.172,0,10.7,10.7,0,0,0,0,.575L2.66,9.441Z" transform="translate(39.269 24.353) rotate(90)"/>
          <path id="Path_212-2" data-name="Path 212" d="M3.522,9.441,6.345.575A10.7,10.7,0,0,0,3.172,0,10.7,10.7,0,0,0,0,.575L2.66,9.441Z" transform="translate(13.966 30.698) rotate(-90)"/>
          <path id="Path_213-2" data-name="Path 213" d="M3.522,9.441,6.345.575A10.7,10.7,0,0,0,3.172,0,10.7,10.7,0,0,0,0,.575L2.66,9.441Z" transform="translate(23.974 14.912)"/>
          <path id="Path_214-2" data-name="Path 214" d="M3.522,9.441,6.345.575A10.7,10.7,0,0,0,3.172,0,10.7,10.7,0,0,0,0,.575L2.66,9.441Z" transform="translate(33.528 16.695) rotate(45)"/>
          <path id="Path_215-2" data-name="Path 215" d="M3.522,0,6.345,8.866a10.7,10.7,0,0,1-3.172.575A10.7,10.7,0,0,1,0,8.866L2.66,0Z" transform="translate(27.146 23.371) rotate(135)"/>
          <path id="Path_216-2" data-name="Path 216" d="M3.522,0,6.345,8.866a10.7,10.7,0,0,1-3.172.575A10.7,10.7,0,0,1,0,8.866L2.66,0Z" transform="translate(23.974 30.578)"/>
          <path id="Path_217-2" data-name="Path 217" d="M3.522,0,6.345,8.866a10.7,10.7,0,0,1-3.172.575A10.7,10.7,0,0,1,0,8.866L2.66,0Z" transform="translate(26.853 31.56) rotate(-45)"/>
          <path id="Path_218-2" data-name="Path 218" d="M3.522,9.441,6.345.575A10.7,10.7,0,0,0,3.172,0,10.7,10.7,0,0,0,0,.575L2.66,9.441Z" transform="translate(20.47 38.236) rotate(-135)"/>
          <ellipse id="Ellipse_95-2" data-name="Ellipse 95" cx="2.18" cy="1.907" rx="2.18" ry="1.907" transform="translate(25.066 25.611)" fill="#939191"/>
        </g>
        <path id="Path_226" data-name="Path 226" d="M778.357,1258.468s-2.6-8.149-4.792-8.849-22.91-3.3-22.91-3.3,18.837,3.192,22.042,4.9S778.357,1258.468,778.357,1258.468Z" transform="translate(-440.059 -1178.974)" fill="#d80808"/>
        <path id="Path_227" data-name="Path 227" d="M766.209,1259.283s-1.732-7.647-6.176-8.513a49.611,49.611,0,0,0-10.744-.392s7.879-.055,11.084,1.653S766.209,1259.283,766.209,1259.283Z" transform="translate(-409.419 -1179.329)" fill="#fcadad"/>
        <path id="Path_229" data-name="Path 229" d="M787.8,1235.865l-29.361,1.887s.969,3.891.448,3.339-2.4-3.37-3.012-3.484-8.578.145-8.578.145l.183-1.814,40.757-.073" transform="translate(-448.468 -1173.97)" fill="#a81010"/>
        <path id="Path_245" data-name="Path 245" d="M148.363,5.624a50.34,50.34,0,0,0-34.9,8.938c-9.223,6.6,1.46-1.454,13.816-5.873C137.111,5.173,148.363,5.624,148.363,5.624Z" transform="translate(-4.295 -0.849)" fill="#fff"/>
        <path id="Path_248" data-name="Path 248" d="M28.287.955c-2.134.124-32.9.853-32.9.853l-.555,2.877Z" transform="translate(15.031 -0.344)" fill="#fff"/>
        <path id="Path_246" data-name="Path 246" d="M988.007,622.948c.357-.4.728-7.749,8.128-14.668s24.416-18.441,24.416-18.441l-39.092,23.1a24.973,24.973,0,0,1,3.6,4.1A30.3,30.3,0,0,1,988.007,622.948Z" transform="translate(-918.037 -573.108)" fill="#d80808"/>
        <path id="Path_250" data-name="Path 250" d="M1073.348,603.253H1089.4" transform="translate(-1061.083 -591.468)" fill="none" stroke="#ba1818" stroke-linecap="round" stroke-width="1"/>
        <path id="Path_251" data-name="Path 251" d="M1073.348,603.253H1089.4" transform="translate(-1062.341 -588.113)" fill="none" stroke="#ba1818" stroke-linecap="round" stroke-width="1"/>
        <path id="Path_252" data-name="Path 252" d="M1073.348,603.253H1089.4" transform="translate(-1063.04 -584.758)" fill="none" stroke="#ba1818" stroke-linecap="round" stroke-width="1"/>
        <path id="Path_253" data-name="Path 253" d="M151.232,20.951s-2.889.041-4.133,1.08a3.2,3.2,0,0,0-.982,2.745l-7.278,1.116-11.923,3.169c.267-.12,14.523-6.588,18.079-7.781A10.794,10.794,0,0,1,151.232,20.951Z" transform="translate(-7.025 -3.329)" fill="#d80808"/>
        <path id="Path_254" data-name="Path 254" d="M163.264,86s-.689,3.7,1.475,4.388,6.034,0,6.034,0l2.84,4.225,4.507-.766-3.552-4.009s3.275.364,2.082-2.034S163.264,86,163.264,86Z" transform="translate(47.464 -58.489)" fill="#f80000"/>
        <path id="Path_255" data-name="Path 255" d="M169.951,90.083c-3.874-.382-7.2.267-5.039.952s6.034,0,6.034,0l5.236-.6A61.89,61.89,0,0,1,169.951,90.083Z" transform="translate(47.292 -59.14)" fill="#cb0e0e"/>
        <path id="Path_256" data-name="Path 256" d="M251.284,41.391s-3.691,2.095-4.253,2.029a5.231,5.231,0,0,0,2.874,0A3.184,3.184,0,0,0,251.284,41.391Z" transform="translate(-26.374 -6.673)" fill="#cb0e0e"/>
        <path id="Path_262" data-name="Path 262" d="M266.758,79.013a29.007,29.007,0,0,1,3.135-2.676c.3-.013,51.5,3.47,51.5,3.47Z" transform="translate(38.304 6.831)" fill="#a81010"/>
      </g>
    </g>
  </g>
</svg>
